<mxfile host="65bd71144e">
    <diagram id="R2lEEEUBdFMjLlhIrx00" name="Page-1">
        <mxGraphModel dx="761" dy="1568" grid="1" gridSize="10" guides="1" tooltips="1" connect="1" arrows="1" fold="1" page="1" pageScale="1" pageWidth="850" pageHeight="1100" math="0" shadow="0" extFonts="Permanent Marker^https://fonts.googleapis.com/css?family=Permanent+Marker">
            <root>
                <mxCell id="0"/>
                <mxCell id="1" parent="0"/>
                <mxCell id="TJ_JR5VQIeQ7h5z75Moj-130" style="edgeStyle=orthogonalEdgeStyle;rounded=0;orthogonalLoop=1;jettySize=auto;html=1;entryX=1;entryY=0.5;entryDx=0;entryDy=0;shadow=0;strokeColor=#82b366;strokeWidth=3;align=center;verticalAlign=middle;fontFamily=Helvetica;fontSize=11;fontColor=default;labelBackgroundColor=default;elbow=vertical;jumpStyle=none;jumpSize=6;startArrow=ERzeroToOne;startFill=0;endArrow=ERzeroToMany;endFill=0;endSize=13;flowAnimation=0;targetPerimeterSpacing=0;curved=1;fillColor=#d5e8d4;startSize=13;" parent="1" source="TJ_JR5VQIeQ7h5z75Moj-18" target="TJ_JR5VQIeQ7h5z75Moj-89" edge="1">
                    <mxGeometry relative="1" as="geometry"/>
                </mxCell>
                <mxCell id="TJ_JR5VQIeQ7h5z75Moj-18" value="accounts" style="shape=table;startSize=30;container=1;collapsible=1;childLayout=tableLayout;fixedRows=1;rowLines=0;fontStyle=1;align=center;resizeLast=1;html=1;fillColor=#d5e8d4;strokeColor=#82b366;rounded=1;" parent="1" vertex="1">
                    <mxGeometry x="760" y="415" width="160" height="180" as="geometry"/>
                </mxCell>
                <mxCell id="TJ_JR5VQIeQ7h5z75Moj-19" value="" style="shape=tableRow;horizontal=0;startSize=0;swimlaneHead=0;swimlaneBody=0;fillColor=none;collapsible=0;dropTarget=0;points=[[0,0.5],[1,0.5]];portConstraint=eastwest;top=0;left=0;right=0;bottom=1;strokeColor=inherit;" parent="TJ_JR5VQIeQ7h5z75Moj-18" vertex="1">
                    <mxGeometry y="30" width="160" height="30" as="geometry"/>
                </mxCell>
                <mxCell id="TJ_JR5VQIeQ7h5z75Moj-20" value="PK" style="shape=partialRectangle;connectable=0;fillColor=none;top=0;left=0;bottom=0;right=0;fontStyle=1;overflow=hidden;whiteSpace=wrap;html=1;" parent="TJ_JR5VQIeQ7h5z75Moj-19" vertex="1">
                    <mxGeometry width="30" height="30" as="geometry">
                        <mxRectangle width="30" height="30" as="alternateBounds"/>
                    </mxGeometry>
                </mxCell>
                <mxCell id="TJ_JR5VQIeQ7h5z75Moj-21" value="id" style="shape=partialRectangle;connectable=0;fillColor=none;top=0;left=0;bottom=0;right=0;align=left;spacingLeft=6;fontStyle=5;overflow=hidden;whiteSpace=wrap;html=1;" parent="TJ_JR5VQIeQ7h5z75Moj-19" vertex="1">
                    <mxGeometry x="30" width="130" height="30" as="geometry">
                        <mxRectangle width="130" height="30" as="alternateBounds"/>
                    </mxGeometry>
                </mxCell>
                <mxCell id="TJ_JR5VQIeQ7h5z75Moj-22" value="" style="shape=tableRow;horizontal=0;startSize=0;swimlaneHead=0;swimlaneBody=0;fillColor=none;collapsible=0;dropTarget=0;points=[[0,0.5],[1,0.5]];portConstraint=eastwest;top=0;left=0;right=0;bottom=0;strokeColor=default;" parent="TJ_JR5VQIeQ7h5z75Moj-18" vertex="1">
                    <mxGeometry y="60" width="160" height="30" as="geometry"/>
                </mxCell>
                <mxCell id="TJ_JR5VQIeQ7h5z75Moj-23" value="" style="shape=partialRectangle;connectable=0;fillColor=none;top=0;left=0;bottom=0;right=0;editable=1;overflow=hidden;whiteSpace=wrap;html=1;" parent="TJ_JR5VQIeQ7h5z75Moj-22" vertex="1">
                    <mxGeometry width="30" height="30" as="geometry">
                        <mxRectangle width="30" height="30" as="alternateBounds"/>
                    </mxGeometry>
                </mxCell>
                <mxCell id="TJ_JR5VQIeQ7h5z75Moj-24" value="name" style="shape=partialRectangle;connectable=0;fillColor=none;top=0;left=0;bottom=0;right=0;align=left;spacingLeft=6;overflow=hidden;whiteSpace=wrap;html=1;" parent="TJ_JR5VQIeQ7h5z75Moj-22" vertex="1">
                    <mxGeometry x="30" width="130" height="30" as="geometry">
                        <mxRectangle width="130" height="30" as="alternateBounds"/>
                    </mxGeometry>
                </mxCell>
                <mxCell id="TJ_JR5VQIeQ7h5z75Moj-25" value="" style="shape=tableRow;horizontal=0;startSize=0;swimlaneHead=0;swimlaneBody=0;fillColor=none;collapsible=0;dropTarget=0;points=[[0,0.5],[1,0.5]];portConstraint=eastwest;top=0;left=0;right=0;bottom=0;" parent="TJ_JR5VQIeQ7h5z75Moj-18" vertex="1">
                    <mxGeometry y="90" width="160" height="30" as="geometry"/>
                </mxCell>
                <mxCell id="TJ_JR5VQIeQ7h5z75Moj-26" value="" style="shape=partialRectangle;connectable=0;fillColor=none;top=0;left=0;bottom=0;right=0;editable=1;overflow=hidden;whiteSpace=wrap;html=1;" parent="TJ_JR5VQIeQ7h5z75Moj-25" vertex="1">
                    <mxGeometry width="30" height="30" as="geometry">
                        <mxRectangle width="30" height="30" as="alternateBounds"/>
                    </mxGeometry>
                </mxCell>
                <mxCell id="TJ_JR5VQIeQ7h5z75Moj-27" value="starting_amount" style="shape=partialRectangle;connectable=0;fillColor=none;top=0;left=0;bottom=0;right=0;align=left;spacingLeft=6;overflow=hidden;whiteSpace=wrap;html=1;" parent="TJ_JR5VQIeQ7h5z75Moj-25" vertex="1">
                    <mxGeometry x="30" width="130" height="30" as="geometry">
                        <mxRectangle width="130" height="30" as="alternateBounds"/>
                    </mxGeometry>
                </mxCell>
                <mxCell id="TJ_JR5VQIeQ7h5z75Moj-28" value="" style="shape=tableRow;horizontal=0;startSize=0;swimlaneHead=0;swimlaneBody=0;fillColor=none;collapsible=0;dropTarget=0;points=[[0,0.5],[1,0.5]];portConstraint=eastwest;top=0;left=0;right=0;bottom=0;" parent="TJ_JR5VQIeQ7h5z75Moj-18" vertex="1">
                    <mxGeometry y="120" width="160" height="30" as="geometry"/>
                </mxCell>
                <mxCell id="TJ_JR5VQIeQ7h5z75Moj-29" value="" style="shape=partialRectangle;connectable=0;fillColor=none;top=0;left=0;bottom=0;right=0;editable=1;overflow=hidden;whiteSpace=wrap;html=1;" parent="TJ_JR5VQIeQ7h5z75Moj-28" vertex="1">
                    <mxGeometry width="30" height="30" as="geometry">
                        <mxRectangle width="30" height="30" as="alternateBounds"/>
                    </mxGeometry>
                </mxCell>
                <mxCell id="TJ_JR5VQIeQ7h5z75Moj-30" value="order_position&lt;span style=&quot;white-space: pre;&quot;&gt;&#9;&lt;/span&gt;" style="shape=partialRectangle;connectable=0;fillColor=none;top=0;left=0;bottom=0;right=0;align=left;spacingLeft=6;overflow=hidden;whiteSpace=wrap;html=1;" parent="TJ_JR5VQIeQ7h5z75Moj-28" vertex="1">
                    <mxGeometry x="30" width="130" height="30" as="geometry">
                        <mxRectangle width="130" height="30" as="alternateBounds"/>
                    </mxGeometry>
                </mxCell>
                <mxCell id="TJ_JR5VQIeQ7h5z75Moj-38" value="" style="shape=tableRow;horizontal=0;startSize=0;swimlaneHead=0;swimlaneBody=0;fillColor=none;collapsible=0;dropTarget=0;points=[[0,0.5],[1,0.5]];portConstraint=eastwest;top=0;left=0;right=0;bottom=0;" parent="TJ_JR5VQIeQ7h5z75Moj-18" vertex="1">
                    <mxGeometry y="150" width="160" height="30" as="geometry"/>
                </mxCell>
                <mxCell id="TJ_JR5VQIeQ7h5z75Moj-39" value="FK" style="shape=partialRectangle;connectable=0;fillColor=none;top=0;left=0;bottom=0;right=0;fontStyle=0;overflow=hidden;whiteSpace=wrap;html=1;" parent="TJ_JR5VQIeQ7h5z75Moj-38" vertex="1">
                    <mxGeometry width="30" height="30" as="geometry">
                        <mxRectangle width="30" height="30" as="alternateBounds"/>
                    </mxGeometry>
                </mxCell>
                <mxCell id="TJ_JR5VQIeQ7h5z75Moj-40" value="user_id" style="shape=partialRectangle;connectable=0;fillColor=none;top=0;left=0;bottom=0;right=0;align=left;spacingLeft=6;fontStyle=0;overflow=hidden;whiteSpace=wrap;html=1;" parent="TJ_JR5VQIeQ7h5z75Moj-38" vertex="1">
                    <mxGeometry x="30" width="130" height="30" as="geometry">
                        <mxRectangle width="130" height="30" as="alternateBounds"/>
                    </mxGeometry>
                </mxCell>
                <mxCell id="TJ_JR5VQIeQ7h5z75Moj-129" style="edgeStyle=orthogonalEdgeStyle;rounded=0;orthogonalLoop=1;jettySize=auto;html=1;entryX=1;entryY=0.5;entryDx=0;entryDy=0;shadow=0;strokeColor=#82b366;strokeWidth=3;align=center;verticalAlign=middle;fontFamily=Helvetica;fontSize=11;fontColor=default;labelBackgroundColor=default;elbow=vertical;jumpStyle=none;jumpSize=6;startArrow=ERzeroToOne;startFill=0;endArrow=ERzeroToMany;endFill=0;endSize=13;flowAnimation=0;targetPerimeterSpacing=0;curved=1;fillColor=#d5e8d4;exitX=0;exitY=0.5;exitDx=0;exitDy=0;startSize=13;sourcePerimeterSpacing=0;" parent="1" source="TJ_JR5VQIeQ7h5z75Moj-54" target="TJ_JR5VQIeQ7h5z75Moj-71" edge="1">
                    <mxGeometry relative="1" as="geometry"/>
                </mxCell>
                <mxCell id="TJ_JR5VQIeQ7h5z75Moj-41" value="categories" style="shape=table;startSize=30;container=1;collapsible=1;childLayout=tableLayout;fixedRows=1;rowLines=0;fontStyle=1;align=center;resizeLast=1;html=1;fillColor=#d5e8d4;strokeColor=#82b366;rounded=1;direction=east;shadow=0;" parent="1" vertex="1">
                    <mxGeometry x="760" y="160" width="160" height="150" as="geometry"/>
                </mxCell>
                <mxCell id="TJ_JR5VQIeQ7h5z75Moj-42" value="" style="shape=tableRow;horizontal=0;startSize=0;swimlaneHead=0;swimlaneBody=0;fillColor=none;collapsible=0;dropTarget=0;points=[[0,0.5],[1,0.5]];portConstraint=eastwest;top=0;left=0;right=0;bottom=1;strokeColor=inherit;" parent="TJ_JR5VQIeQ7h5z75Moj-41" vertex="1">
                    <mxGeometry y="30" width="160" height="30" as="geometry"/>
                </mxCell>
                <mxCell id="TJ_JR5VQIeQ7h5z75Moj-43" value="PK" style="shape=partialRectangle;connectable=0;fillColor=none;top=0;left=0;bottom=0;right=0;fontStyle=1;overflow=hidden;whiteSpace=wrap;html=1;" parent="TJ_JR5VQIeQ7h5z75Moj-42" vertex="1">
                    <mxGeometry width="30" height="30" as="geometry">
                        <mxRectangle width="30" height="30" as="alternateBounds"/>
                    </mxGeometry>
                </mxCell>
                <mxCell id="TJ_JR5VQIeQ7h5z75Moj-44" value="id" style="shape=partialRectangle;connectable=0;fillColor=none;top=0;left=0;bottom=0;right=0;align=left;spacingLeft=6;fontStyle=5;overflow=hidden;whiteSpace=wrap;html=1;strokeColor=default;" parent="TJ_JR5VQIeQ7h5z75Moj-42" vertex="1">
                    <mxGeometry x="30" width="130" height="30" as="geometry">
                        <mxRectangle width="130" height="30" as="alternateBounds"/>
                    </mxGeometry>
                </mxCell>
                <mxCell id="TJ_JR5VQIeQ7h5z75Moj-45" value="" style="shape=tableRow;horizontal=0;startSize=0;swimlaneHead=0;swimlaneBody=0;fillColor=none;collapsible=0;dropTarget=0;points=[[0,0.5],[1,0.5]];portConstraint=eastwest;top=0;left=0;right=0;bottom=0;" parent="TJ_JR5VQIeQ7h5z75Moj-41" vertex="1">
                    <mxGeometry y="60" width="160" height="30" as="geometry"/>
                </mxCell>
                <mxCell id="TJ_JR5VQIeQ7h5z75Moj-46" value="" style="shape=partialRectangle;connectable=0;fillColor=none;top=0;left=0;bottom=0;right=0;editable=1;overflow=hidden;whiteSpace=wrap;html=1;" parent="TJ_JR5VQIeQ7h5z75Moj-45" vertex="1">
                    <mxGeometry width="30" height="30" as="geometry">
                        <mxRectangle width="30" height="30" as="alternateBounds"/>
                    </mxGeometry>
                </mxCell>
                <mxCell id="TJ_JR5VQIeQ7h5z75Moj-47" value="name" style="shape=partialRectangle;connectable=0;fillColor=none;top=0;left=0;bottom=0;right=0;align=left;spacingLeft=6;overflow=hidden;whiteSpace=wrap;html=1;" parent="TJ_JR5VQIeQ7h5z75Moj-45" vertex="1">
                    <mxGeometry x="30" width="130" height="30" as="geometry">
                        <mxRectangle width="130" height="30" as="alternateBounds"/>
                    </mxGeometry>
                </mxCell>
                <mxCell id="TJ_JR5VQIeQ7h5z75Moj-51" value="" style="shape=tableRow;horizontal=0;startSize=0;swimlaneHead=0;swimlaneBody=0;fillColor=none;collapsible=0;dropTarget=0;points=[[0,0.5],[1,0.5]];portConstraint=eastwest;top=0;left=0;right=0;bottom=0;" parent="TJ_JR5VQIeQ7h5z75Moj-41" vertex="1">
                    <mxGeometry y="90" width="160" height="30" as="geometry"/>
                </mxCell>
                <mxCell id="TJ_JR5VQIeQ7h5z75Moj-52" value="" style="shape=partialRectangle;connectable=0;fillColor=none;top=0;left=0;bottom=0;right=0;editable=1;overflow=hidden;whiteSpace=wrap;html=1;" parent="TJ_JR5VQIeQ7h5z75Moj-51" vertex="1">
                    <mxGeometry width="30" height="30" as="geometry">
                        <mxRectangle width="30" height="30" as="alternateBounds"/>
                    </mxGeometry>
                </mxCell>
                <mxCell id="TJ_JR5VQIeQ7h5z75Moj-53" value="order_position&lt;span style=&quot;white-space: pre;&quot;&gt;&#9;&lt;/span&gt;" style="shape=partialRectangle;connectable=0;fillColor=none;top=0;left=0;bottom=0;right=0;align=left;spacingLeft=6;overflow=hidden;whiteSpace=wrap;html=1;" parent="TJ_JR5VQIeQ7h5z75Moj-51" vertex="1">
                    <mxGeometry x="30" width="130" height="30" as="geometry">
                        <mxRectangle width="130" height="30" as="alternateBounds"/>
                    </mxGeometry>
                </mxCell>
                <mxCell id="TJ_JR5VQIeQ7h5z75Moj-54" value="" style="shape=tableRow;horizontal=0;startSize=0;swimlaneHead=0;swimlaneBody=0;fillColor=none;collapsible=0;dropTarget=0;points=[[0,0.5],[1,0.5]];portConstraint=eastwest;top=0;left=0;right=0;bottom=0;" parent="TJ_JR5VQIeQ7h5z75Moj-41" vertex="1">
                    <mxGeometry y="120" width="160" height="30" as="geometry"/>
                </mxCell>
                <mxCell id="TJ_JR5VQIeQ7h5z75Moj-55" value="FK" style="shape=partialRectangle;connectable=0;fillColor=none;top=0;left=0;bottom=0;right=0;fontStyle=0;overflow=hidden;whiteSpace=wrap;html=1;" parent="TJ_JR5VQIeQ7h5z75Moj-54" vertex="1">
                    <mxGeometry width="30" height="30" as="geometry">
                        <mxRectangle width="30" height="30" as="alternateBounds"/>
                    </mxGeometry>
                </mxCell>
                <mxCell id="TJ_JR5VQIeQ7h5z75Moj-56" value="user_id" style="shape=partialRectangle;connectable=0;fillColor=none;top=0;left=0;bottom=0;right=0;align=left;spacingLeft=6;fontStyle=0;overflow=hidden;whiteSpace=wrap;html=1;" parent="TJ_JR5VQIeQ7h5z75Moj-54" vertex="1">
                    <mxGeometry x="30" width="130" height="30" as="geometry">
                        <mxRectangle width="130" height="30" as="alternateBounds"/>
                    </mxGeometry>
                </mxCell>
                <mxCell id="TJ_JR5VQIeQ7h5z75Moj-57" value="transactions" style="shape=table;startSize=30;container=1;collapsible=1;childLayout=tableLayout;fixedRows=1;rowLines=0;fontStyle=1;align=center;resizeLast=1;html=1;fillColor=#d5e8d4;strokeColor=#82b366;rounded=1;" parent="1" vertex="1">
                    <mxGeometry x="180" y="310" width="160" height="180" as="geometry"/>
                </mxCell>
                <mxCell id="TJ_JR5VQIeQ7h5z75Moj-58" value="" style="shape=tableRow;horizontal=0;startSize=0;swimlaneHead=0;swimlaneBody=0;fillColor=none;collapsible=0;dropTarget=0;points=[[0,0.5],[1,0.5]];portConstraint=eastwest;top=0;left=0;right=0;bottom=1;strokeColor=inherit;" parent="TJ_JR5VQIeQ7h5z75Moj-57" vertex="1">
                    <mxGeometry y="30" width="160" height="30" as="geometry"/>
                </mxCell>
                <mxCell id="TJ_JR5VQIeQ7h5z75Moj-59" value="PK" style="shape=partialRectangle;connectable=0;fillColor=none;top=0;left=0;bottom=0;right=0;fontStyle=1;overflow=hidden;whiteSpace=wrap;html=1;" parent="TJ_JR5VQIeQ7h5z75Moj-58" vertex="1">
                    <mxGeometry width="30" height="30" as="geometry">
                        <mxRectangle width="30" height="30" as="alternateBounds"/>
                    </mxGeometry>
                </mxCell>
                <mxCell id="TJ_JR5VQIeQ7h5z75Moj-60" value="id" style="shape=partialRectangle;connectable=0;fillColor=none;top=0;left=0;bottom=0;right=0;align=left;spacingLeft=6;fontStyle=5;overflow=hidden;whiteSpace=wrap;html=1;" parent="TJ_JR5VQIeQ7h5z75Moj-58" vertex="1">
                    <mxGeometry x="30" width="130" height="30" as="geometry">
                        <mxRectangle width="130" height="30" as="alternateBounds"/>
                    </mxGeometry>
                </mxCell>
                <mxCell id="TJ_JR5VQIeQ7h5z75Moj-61" value="" style="shape=tableRow;horizontal=0;startSize=0;swimlaneHead=0;swimlaneBody=0;fillColor=none;collapsible=0;dropTarget=0;points=[[0,0.5],[1,0.5]];portConstraint=eastwest;top=0;left=0;right=0;bottom=0;" parent="TJ_JR5VQIeQ7h5z75Moj-57" vertex="1">
                    <mxGeometry y="60" width="160" height="30" as="geometry"/>
                </mxCell>
                <mxCell id="TJ_JR5VQIeQ7h5z75Moj-62" value="" style="shape=partialRectangle;connectable=0;fillColor=none;top=0;left=0;bottom=0;right=0;editable=1;overflow=hidden;whiteSpace=wrap;html=1;" parent="TJ_JR5VQIeQ7h5z75Moj-61" vertex="1">
                    <mxGeometry width="30" height="30" as="geometry">
                        <mxRectangle width="30" height="30" as="alternateBounds"/>
                    </mxGeometry>
                </mxCell>
                <mxCell id="TJ_JR5VQIeQ7h5z75Moj-63" value="name" style="shape=partialRectangle;connectable=0;fillColor=none;top=0;left=0;bottom=0;right=0;align=left;spacingLeft=6;overflow=hidden;whiteSpace=wrap;html=1;" parent="TJ_JR5VQIeQ7h5z75Moj-61" vertex="1">
                    <mxGeometry x="30" width="130" height="30" as="geometry">
                        <mxRectangle width="130" height="30" as="alternateBounds"/>
                    </mxGeometry>
                </mxCell>
                <mxCell id="TJ_JR5VQIeQ7h5z75Moj-64" value="" style="shape=tableRow;horizontal=0;startSize=0;swimlaneHead=0;swimlaneBody=0;fillColor=none;collapsible=0;dropTarget=0;points=[[0,0.5],[1,0.5]];portConstraint=eastwest;top=0;left=0;right=0;bottom=0;" parent="TJ_JR5VQIeQ7h5z75Moj-57" vertex="1">
                    <mxGeometry y="90" width="160" height="30" as="geometry"/>
                </mxCell>
                <mxCell id="TJ_JR5VQIeQ7h5z75Moj-65" value="" style="shape=partialRectangle;connectable=0;fillColor=none;top=0;left=0;bottom=0;right=0;editable=1;overflow=hidden;whiteSpace=wrap;html=1;" parent="TJ_JR5VQIeQ7h5z75Moj-64" vertex="1">
                    <mxGeometry width="30" height="30" as="geometry">
                        <mxRectangle width="30" height="30" as="alternateBounds"/>
                    </mxGeometry>
                </mxCell>
                <mxCell id="TJ_JR5VQIeQ7h5z75Moj-66" value="date" style="shape=partialRectangle;connectable=0;fillColor=none;top=0;left=0;bottom=0;right=0;align=left;spacingLeft=6;overflow=hidden;whiteSpace=wrap;html=1;" parent="TJ_JR5VQIeQ7h5z75Moj-64" vertex="1">
                    <mxGeometry x="30" width="130" height="30" as="geometry">
                        <mxRectangle width="130" height="30" as="alternateBounds"/>
                    </mxGeometry>
                </mxCell>
                <mxCell id="TJ_JR5VQIeQ7h5z75Moj-83" value="" style="shape=tableRow;horizontal=0;startSize=0;swimlaneHead=0;swimlaneBody=0;fillColor=none;collapsible=0;dropTarget=0;points=[[0,0.5],[1,0.5]];portConstraint=eastwest;top=0;left=0;right=0;bottom=0;" parent="TJ_JR5VQIeQ7h5z75Moj-57" vertex="1">
                    <mxGeometry y="120" width="160" height="30" as="geometry"/>
                </mxCell>
                <mxCell id="TJ_JR5VQIeQ7h5z75Moj-84" value="" style="shape=partialRectangle;connectable=0;fillColor=none;top=0;left=0;bottom=0;right=0;editable=1;overflow=hidden;" parent="TJ_JR5VQIeQ7h5z75Moj-83" vertex="1">
                    <mxGeometry width="30" height="30" as="geometry">
                        <mxRectangle width="30" height="30" as="alternateBounds"/>
                    </mxGeometry>
                </mxCell>
                <mxCell id="TJ_JR5VQIeQ7h5z75Moj-85" value="order_position" style="shape=partialRectangle;connectable=0;fillColor=none;top=0;left=0;bottom=0;right=0;align=left;spacingLeft=6;overflow=hidden;" parent="TJ_JR5VQIeQ7h5z75Moj-83" vertex="1">
                    <mxGeometry x="30" width="130" height="30" as="geometry">
                        <mxRectangle width="130" height="30" as="alternateBounds"/>
                    </mxGeometry>
                </mxCell>
                <mxCell id="TJ_JR5VQIeQ7h5z75Moj-67" value="" style="shape=tableRow;horizontal=0;startSize=0;swimlaneHead=0;swimlaneBody=0;fillColor=none;collapsible=0;dropTarget=0;points=[[0,0.5],[1,0.5]];portConstraint=eastwest;top=0;left=0;right=0;bottom=0;" parent="TJ_JR5VQIeQ7h5z75Moj-57" vertex="1">
                    <mxGeometry y="150" width="160" height="30" as="geometry"/>
                </mxCell>
                <mxCell id="TJ_JR5VQIeQ7h5z75Moj-68" value="FK" style="shape=partialRectangle;connectable=0;fillColor=none;top=0;left=0;bottom=0;right=0;editable=1;overflow=hidden;whiteSpace=wrap;html=1;" parent="TJ_JR5VQIeQ7h5z75Moj-67" vertex="1">
                    <mxGeometry width="30" height="30" as="geometry">
                        <mxRectangle width="30" height="30" as="alternateBounds"/>
                    </mxGeometry>
                </mxCell>
                <mxCell id="TJ_JR5VQIeQ7h5z75Moj-69" value="user_id" style="shape=partialRectangle;connectable=0;fillColor=none;top=0;left=0;bottom=0;right=0;align=left;spacingLeft=6;overflow=hidden;whiteSpace=wrap;html=1;" parent="TJ_JR5VQIeQ7h5z75Moj-67" vertex="1">
                    <mxGeometry x="30" width="130" height="30" as="geometry">
                        <mxRectangle width="130" height="30" as="alternateBounds"/>
                    </mxGeometry>
                </mxCell>
                <mxCell id="TJ_JR5VQIeQ7h5z75Moj-70" value="transaction_items" style="shape=table;startSize=30;container=1;collapsible=1;childLayout=tableLayout;fixedRows=1;rowLines=0;fontStyle=1;align=center;resizeLast=1;html=1;fillColor=#d5e8d4;strokeColor=#82b366;rounded=1;" parent="1" vertex="1">
                    <mxGeometry x="440" y="310" width="160" height="240" as="geometry"/>
                </mxCell>
                <mxCell id="TJ_JR5VQIeQ7h5z75Moj-71" value="" style="shape=tableRow;horizontal=0;startSize=0;swimlaneHead=0;swimlaneBody=0;fillColor=none;collapsible=0;dropTarget=0;points=[[0,0.5],[1,0.5]];portConstraint=eastwest;top=0;left=0;right=0;bottom=1;strokeColor=inherit;" parent="TJ_JR5VQIeQ7h5z75Moj-70" vertex="1">
                    <mxGeometry y="30" width="160" height="30" as="geometry"/>
                </mxCell>
                <mxCell id="TJ_JR5VQIeQ7h5z75Moj-72" value="PK" style="shape=partialRectangle;connectable=0;fillColor=none;top=0;left=0;bottom=0;right=0;fontStyle=1;overflow=hidden;whiteSpace=wrap;html=1;" parent="TJ_JR5VQIeQ7h5z75Moj-71" vertex="1">
                    <mxGeometry width="30" height="30" as="geometry">
                        <mxRectangle width="30" height="30" as="alternateBounds"/>
                    </mxGeometry>
                </mxCell>
                <mxCell id="TJ_JR5VQIeQ7h5z75Moj-73" value="id" style="shape=partialRectangle;connectable=0;fillColor=none;top=0;left=0;bottom=0;right=0;align=left;spacingLeft=6;fontStyle=5;overflow=hidden;whiteSpace=wrap;html=1;" parent="TJ_JR5VQIeQ7h5z75Moj-71" vertex="1">
                    <mxGeometry x="30" width="130" height="30" as="geometry">
                        <mxRectangle width="130" height="30" as="alternateBounds"/>
                    </mxGeometry>
                </mxCell>
                <mxCell id="TJ_JR5VQIeQ7h5z75Moj-74" value="" style="shape=tableRow;horizontal=0;startSize=0;swimlaneHead=0;swimlaneBody=0;fillColor=none;collapsible=0;dropTarget=0;points=[[0,0.5],[1,0.5]];portConstraint=eastwest;top=0;left=0;right=0;bottom=0;" parent="TJ_JR5VQIeQ7h5z75Moj-70" vertex="1">
                    <mxGeometry y="60" width="160" height="30" as="geometry"/>
                </mxCell>
                <mxCell id="TJ_JR5VQIeQ7h5z75Moj-75" value="" style="shape=partialRectangle;connectable=0;fillColor=none;top=0;left=0;bottom=0;right=0;editable=1;overflow=hidden;whiteSpace=wrap;html=1;" parent="TJ_JR5VQIeQ7h5z75Moj-74" vertex="1">
                    <mxGeometry width="30" height="30" as="geometry">
                        <mxRectangle width="30" height="30" as="alternateBounds"/>
                    </mxGeometry>
                </mxCell>
                <mxCell id="TJ_JR5VQIeQ7h5z75Moj-76" value="name" style="shape=partialRectangle;connectable=0;fillColor=none;top=0;left=0;bottom=0;right=0;align=left;spacingLeft=6;overflow=hidden;whiteSpace=wrap;html=1;" parent="TJ_JR5VQIeQ7h5z75Moj-74" vertex="1">
                    <mxGeometry x="30" width="130" height="30" as="geometry">
                        <mxRectangle width="130" height="30" as="alternateBounds"/>
                    </mxGeometry>
                </mxCell>
                <mxCell id="TJ_JR5VQIeQ7h5z75Moj-86" value="" style="shape=tableRow;horizontal=0;startSize=0;swimlaneHead=0;swimlaneBody=0;fillColor=none;collapsible=0;dropTarget=0;points=[[0,0.5],[1,0.5]];portConstraint=eastwest;top=0;left=0;right=0;bottom=0;" parent="TJ_JR5VQIeQ7h5z75Moj-70" vertex="1">
                    <mxGeometry y="90" width="160" height="30" as="geometry"/>
                </mxCell>
                <mxCell id="TJ_JR5VQIeQ7h5z75Moj-87" value="" style="shape=partialRectangle;connectable=0;fillColor=none;top=0;left=0;bottom=0;right=0;editable=1;overflow=hidden;" parent="TJ_JR5VQIeQ7h5z75Moj-86" vertex="1">
                    <mxGeometry width="30" height="30" as="geometry">
                        <mxRectangle width="30" height="30" as="alternateBounds"/>
                    </mxGeometry>
                </mxCell>
                <mxCell id="TJ_JR5VQIeQ7h5z75Moj-88" value="amount" style="shape=partialRectangle;connectable=0;fillColor=none;top=0;left=0;bottom=0;right=0;align=left;spacingLeft=6;overflow=hidden;" parent="TJ_JR5VQIeQ7h5z75Moj-86" vertex="1">
                    <mxGeometry x="30" width="130" height="30" as="geometry">
                        <mxRectangle width="130" height="30" as="alternateBounds"/>
                    </mxGeometry>
                </mxCell>
                <mxCell id="TJ_JR5VQIeQ7h5z75Moj-77" value="" style="shape=tableRow;horizontal=0;startSize=0;swimlaneHead=0;swimlaneBody=0;fillColor=none;collapsible=0;dropTarget=0;points=[[0,0.5],[1,0.5]];portConstraint=eastwest;top=0;left=0;right=0;bottom=0;" parent="TJ_JR5VQIeQ7h5z75Moj-70" vertex="1">
                    <mxGeometry y="120" width="160" height="30" as="geometry"/>
                </mxCell>
                <mxCell id="TJ_JR5VQIeQ7h5z75Moj-78" value="FK" style="shape=partialRectangle;connectable=0;fillColor=none;top=0;left=0;bottom=0;right=0;editable=1;overflow=hidden;whiteSpace=wrap;html=1;" parent="TJ_JR5VQIeQ7h5z75Moj-77" vertex="1">
                    <mxGeometry width="30" height="30" as="geometry">
                        <mxRectangle width="30" height="30" as="alternateBounds"/>
                    </mxGeometry>
                </mxCell>
                <mxCell id="TJ_JR5VQIeQ7h5z75Moj-79" value="category_id" style="shape=partialRectangle;connectable=0;fillColor=none;top=0;left=0;bottom=0;right=0;align=left;spacingLeft=6;overflow=hidden;whiteSpace=wrap;html=1;" parent="TJ_JR5VQIeQ7h5z75Moj-77" vertex="1">
                    <mxGeometry x="30" width="130" height="30" as="geometry">
                        <mxRectangle width="130" height="30" as="alternateBounds"/>
                    </mxGeometry>
                </mxCell>
                <mxCell id="TJ_JR5VQIeQ7h5z75Moj-80" value="" style="shape=tableRow;horizontal=0;startSize=0;swimlaneHead=0;swimlaneBody=0;fillColor=none;collapsible=0;dropTarget=0;points=[[0,0.5],[1,0.5]];portConstraint=eastwest;top=0;left=0;right=0;bottom=0;" parent="TJ_JR5VQIeQ7h5z75Moj-70" vertex="1">
                    <mxGeometry y="150" width="160" height="30" as="geometry"/>
                </mxCell>
                <mxCell id="TJ_JR5VQIeQ7h5z75Moj-81" value="FK" style="shape=partialRectangle;connectable=0;fillColor=none;top=0;left=0;bottom=0;right=0;editable=1;overflow=hidden;whiteSpace=wrap;html=1;" parent="TJ_JR5VQIeQ7h5z75Moj-80" vertex="1">
                    <mxGeometry width="30" height="30" as="geometry">
                        <mxRectangle width="30" height="30" as="alternateBounds"/>
                    </mxGeometry>
                </mxCell>
                <mxCell id="TJ_JR5VQIeQ7h5z75Moj-82" value="account_id" style="shape=partialRectangle;connectable=0;fillColor=none;top=0;left=0;bottom=0;right=0;align=left;spacingLeft=6;overflow=hidden;whiteSpace=wrap;html=1;" parent="TJ_JR5VQIeQ7h5z75Moj-80" vertex="1">
                    <mxGeometry x="30" width="130" height="30" as="geometry">
                        <mxRectangle width="130" height="30" as="alternateBounds"/>
                    </mxGeometry>
                </mxCell>
                <mxCell id="TJ_JR5VQIeQ7h5z75Moj-89" value="" style="shape=tableRow;horizontal=0;startSize=0;swimlaneHead=0;swimlaneBody=0;fillColor=none;collapsible=0;dropTarget=0;points=[[0,0.5],[1,0.5]];portConstraint=eastwest;top=0;left=0;right=0;bottom=0;" parent="TJ_JR5VQIeQ7h5z75Moj-70" vertex="1">
                    <mxGeometry y="180" width="160" height="30" as="geometry"/>
                </mxCell>
                <mxCell id="TJ_JR5VQIeQ7h5z75Moj-90" value="FK" style="shape=partialRectangle;connectable=0;fillColor=none;top=0;left=0;bottom=0;right=0;editable=1;overflow=hidden;" parent="TJ_JR5VQIeQ7h5z75Moj-89" vertex="1">
                    <mxGeometry width="30" height="30" as="geometry">
                        <mxRectangle width="30" height="30" as="alternateBounds"/>
                    </mxGeometry>
                </mxCell>
                <mxCell id="TJ_JR5VQIeQ7h5z75Moj-91" value="transaction_id" style="shape=partialRectangle;connectable=0;fillColor=none;top=0;left=0;bottom=0;right=0;align=left;spacingLeft=6;overflow=hidden;" parent="TJ_JR5VQIeQ7h5z75Moj-89" vertex="1">
                    <mxGeometry x="30" width="130" height="30" as="geometry">
                        <mxRectangle width="130" height="30" as="alternateBounds"/>
                    </mxGeometry>
                </mxCell>
                <mxCell id="TJ_JR5VQIeQ7h5z75Moj-92" value="" style="shape=tableRow;horizontal=0;startSize=0;swimlaneHead=0;swimlaneBody=0;fillColor=none;collapsible=0;dropTarget=0;points=[[0,0.5],[1,0.5]];portConstraint=eastwest;top=0;left=0;right=0;bottom=0;" parent="TJ_JR5VQIeQ7h5z75Moj-70" vertex="1">
                    <mxGeometry y="210" width="160" height="30" as="geometry"/>
                </mxCell>
                <mxCell id="TJ_JR5VQIeQ7h5z75Moj-93" value="FK" style="shape=partialRectangle;connectable=0;fillColor=none;top=0;left=0;bottom=0;right=0;editable=1;overflow=hidden;" parent="TJ_JR5VQIeQ7h5z75Moj-92" vertex="1">
                    <mxGeometry width="30" height="30" as="geometry">
                        <mxRectangle width="30" height="30" as="alternateBounds"/>
                    </mxGeometry>
                </mxCell>
                <mxCell id="TJ_JR5VQIeQ7h5z75Moj-94" value="user_id" style="shape=partialRectangle;connectable=0;fillColor=none;top=0;left=0;bottom=0;right=0;align=left;spacingLeft=6;overflow=hidden;" parent="TJ_JR5VQIeQ7h5z75Moj-92" vertex="1">
                    <mxGeometry x="30" width="130" height="30" as="geometry">
                        <mxRectangle width="130" height="30" as="alternateBounds"/>
                    </mxGeometry>
                </mxCell>
                <mxCell id="TJ_JR5VQIeQ7h5z75Moj-125" style="edgeStyle=orthogonalEdgeStyle;rounded=0;orthogonalLoop=1;jettySize=auto;html=1;entryX=0.012;entryY=0.098;entryDx=0;entryDy=0;shadow=0;strokeColor=#82b366;strokeWidth=3;align=center;verticalAlign=middle;fontFamily=Helvetica;fontSize=11;fontColor=default;labelBackgroundColor=default;elbow=vertical;jumpStyle=none;jumpSize=6;startArrow=ERone;startFill=0;endArrow=ERzeroToMany;endFill=0;flowAnimation=0;fillColor=#d5e8d4;targetPerimeterSpacing=0;endSize=13;curved=1;entryPerimeter=0;startSize=13;" parent="1" source="TJ_JR5VQIeQ7h5z75Moj-95" target="TJ_JR5VQIeQ7h5z75Moj-41" edge="1">
                    <mxGeometry relative="1" as="geometry"/>
                </mxCell>
                <mxCell id="TJ_JR5VQIeQ7h5z75Moj-126" style="edgeStyle=orthogonalEdgeStyle;rounded=0;orthogonalLoop=1;jettySize=auto;html=1;entryX=0.25;entryY=0;entryDx=0;entryDy=0;shadow=0;strokeColor=#82b366;strokeWidth=3;align=center;verticalAlign=middle;fontFamily=Helvetica;fontSize=11;fontColor=default;labelBackgroundColor=default;elbow=vertical;jumpStyle=none;jumpSize=6;startArrow=ERone;startFill=0;endArrow=ERzeroToMany;endFill=0;endSize=13;flowAnimation=0;targetPerimeterSpacing=0;fillColor=#d5e8d4;curved=1;startSize=13;" parent="1" source="TJ_JR5VQIeQ7h5z75Moj-95" target="TJ_JR5VQIeQ7h5z75Moj-18" edge="1">
                    <mxGeometry relative="1" as="geometry">
                        <Array as="points">
                            <mxPoint x="720" y="190"/>
                            <mxPoint x="720" y="360"/>
                            <mxPoint x="800" y="360"/>
                        </Array>
                    </mxGeometry>
                </mxCell>
                <mxCell id="TJ_JR5VQIeQ7h5z75Moj-127" style="edgeStyle=orthogonalEdgeStyle;rounded=0;orthogonalLoop=1;jettySize=auto;html=1;entryX=0.75;entryY=0;entryDx=0;entryDy=0;shadow=0;strokeColor=#82b366;strokeWidth=3;align=center;verticalAlign=middle;fontFamily=Helvetica;fontSize=11;fontColor=default;labelBackgroundColor=default;elbow=vertical;jumpStyle=none;jumpSize=6;startArrow=ERone;startFill=0;endArrow=ERzeroToMany;endFill=0;endSize=13;flowAnimation=0;targetPerimeterSpacing=0;curved=1;fillColor=#d5e8d4;startSize=13;" parent="1" source="TJ_JR5VQIeQ7h5z75Moj-95" target="TJ_JR5VQIeQ7h5z75Moj-57" edge="1">
                    <mxGeometry relative="1" as="geometry"/>
                </mxCell>
                <mxCell id="TJ_JR5VQIeQ7h5z75Moj-128" style="edgeStyle=orthogonalEdgeStyle;rounded=0;orthogonalLoop=1;jettySize=auto;html=1;shadow=0;strokeColor=#82b366;strokeWidth=3;align=center;verticalAlign=middle;fontFamily=Helvetica;fontSize=11;fontColor=default;labelBackgroundColor=default;elbow=vertical;jumpStyle=none;jumpSize=6;startArrow=ERone;startFill=0;endArrow=ERzeroToMany;endFill=0;endSize=13;flowAnimation=0;targetPerimeterSpacing=0;curved=1;fillColor=#d5e8d4;entryX=0.5;entryY=0;entryDx=0;entryDy=0;startSize=13;" parent="1" source="TJ_JR5VQIeQ7h5z75Moj-95" target="TJ_JR5VQIeQ7h5z75Moj-70" edge="1">
                    <mxGeometry relative="1" as="geometry">
                        <mxPoint x="470" y="270" as="targetPoint"/>
                        <Array as="points">
                            <mxPoint x="520" y="260"/>
                            <mxPoint x="520" y="260"/>
                        </Array>
                    </mxGeometry>
                </mxCell>
                <mxCell id="TJ_JR5VQIeQ7h5z75Moj-95" value="users" style="shape=table;startSize=30;container=1;collapsible=1;childLayout=tableLayout;fixedRows=1;rowLines=0;fontStyle=1;align=center;resizeLast=1;html=1;rounded=1;fillColor=#d5e8d4;strokeColor=#82b366;swimlaneLine=1;bottom=0;top=0;" parent="1" vertex="1">
                    <mxGeometry x="440" y="160" width="160" height="60" as="geometry"/>
                </mxCell>
                <mxCell id="TJ_JR5VQIeQ7h5z75Moj-96" value="" style="shape=tableRow;horizontal=0;startSize=0;swimlaneHead=0;swimlaneBody=0;fillColor=none;collapsible=0;dropTarget=0;points=[[0,0.5],[1,0.5]];portConstraint=eastwest;top=0;left=0;right=0;bottom=0;strokeColor=inherit;swimlaneLine=1;" parent="TJ_JR5VQIeQ7h5z75Moj-95" vertex="1">
                    <mxGeometry y="30" width="160" height="30" as="geometry"/>
                </mxCell>
                <mxCell id="TJ_JR5VQIeQ7h5z75Moj-97" value="PK" style="shape=partialRectangle;connectable=0;fillColor=none;top=0;left=0;bottom=0;right=0;fontStyle=1;overflow=hidden;whiteSpace=wrap;html=1;swimlaneLine=1;" parent="TJ_JR5VQIeQ7h5z75Moj-96" vertex="1">
                    <mxGeometry width="30" height="30" as="geometry">
                        <mxRectangle width="30" height="30" as="alternateBounds"/>
                    </mxGeometry>
                </mxCell>
                <mxCell id="TJ_JR5VQIeQ7h5z75Moj-98" value="id" style="shape=partialRectangle;connectable=0;fillColor=none;top=0;left=0;bottom=0;right=0;align=left;spacingLeft=6;fontStyle=5;overflow=hidden;whiteSpace=wrap;html=1;swimlaneLine=1;" parent="TJ_JR5VQIeQ7h5z75Moj-96" vertex="1">
                    <mxGeometry x="30" width="130" height="30" as="geometry">
                        <mxRectangle width="130" height="30" as="alternateBounds"/>
                    </mxGeometry>
                </mxCell>
                <mxCell id="TJ_JR5VQIeQ7h5z75Moj-132" style="edgeStyle=orthogonalEdgeStyle;rounded=0;orthogonalLoop=1;jettySize=auto;html=1;entryX=0.5;entryY=0;entryDx=0;entryDy=0;shadow=0;strokeColor=#82b366;strokeWidth=3;align=center;verticalAlign=middle;fontFamily=Helvetica;fontSize=11;fontColor=default;labelBackgroundColor=default;elbow=vertical;jumpStyle=none;jumpSize=6;startArrow=ERone;startFill=0;endArrow=ERone;endFill=0;endSize=13;flowAnimation=0;targetPerimeterSpacing=0;curved=1;fillColor=#d5e8d4;startSize=13;" parent="1" source="TJ_JR5VQIeQ7h5z75Moj-111" target="TJ_JR5VQIeQ7h5z75Moj-95" edge="1">
                    <mxGeometry relative="1" as="geometry"/>
                </mxCell>
                <mxCell id="TJ_JR5VQIeQ7h5z75Moj-111" value="preferences" style="shape=table;startSize=30;container=1;collapsible=1;childLayout=tableLayout;fixedRows=1;rowLines=0;fontStyle=1;align=center;resizeLast=1;html=1;fillColor=#d5e8d4;strokeColor=#82b366;rounded=1;" parent="1" vertex="1">
                    <mxGeometry x="350" y="-80" width="340" height="180" as="geometry"/>
                </mxCell>
                <mxCell id="TJ_JR5VQIeQ7h5z75Moj-112" value="" style="shape=tableRow;horizontal=0;startSize=0;swimlaneHead=0;swimlaneBody=0;fillColor=none;collapsible=0;dropTarget=0;points=[[0,0.5],[1,0.5]];portConstraint=eastwest;top=0;left=0;right=0;bottom=1;strokeColor=inherit;" parent="TJ_JR5VQIeQ7h5z75Moj-111" vertex="1">
                    <mxGeometry y="30" width="340" height="30" as="geometry"/>
                </mxCell>
                <mxCell id="TJ_JR5VQIeQ7h5z75Moj-113" value="PK" style="shape=partialRectangle;connectable=0;fillColor=none;top=0;left=0;bottom=0;right=0;fontStyle=1;overflow=hidden;whiteSpace=wrap;html=1;" parent="TJ_JR5VQIeQ7h5z75Moj-112" vertex="1">
                    <mxGeometry width="30" height="30" as="geometry">
                        <mxRectangle width="30" height="30" as="alternateBounds"/>
                    </mxGeometry>
                </mxCell>
                <mxCell id="TJ_JR5VQIeQ7h5z75Moj-114" value="id" style="shape=partialRectangle;connectable=0;fillColor=none;top=0;left=0;bottom=0;right=0;align=left;spacingLeft=6;fontStyle=5;overflow=hidden;whiteSpace=wrap;html=1;" parent="TJ_JR5VQIeQ7h5z75Moj-112" vertex="1">
                    <mxGeometry x="30" width="310" height="30" as="geometry">
                        <mxRectangle width="310" height="30" as="alternateBounds"/>
                    </mxGeometry>
                </mxCell>
                <mxCell id="TJ_JR5VQIeQ7h5z75Moj-115" value="" style="shape=tableRow;horizontal=0;startSize=0;swimlaneHead=0;swimlaneBody=0;fillColor=none;collapsible=0;dropTarget=0;points=[[0,0.5],[1,0.5]];portConstraint=eastwest;top=0;left=0;right=0;bottom=0;" parent="TJ_JR5VQIeQ7h5z75Moj-111" vertex="1">
                    <mxGeometry y="60" width="340" height="30" as="geometry"/>
                </mxCell>
                <mxCell id="TJ_JR5VQIeQ7h5z75Moj-116" value="" style="shape=partialRectangle;connectable=0;fillColor=none;top=0;left=0;bottom=0;right=0;editable=1;overflow=hidden;whiteSpace=wrap;html=1;" parent="TJ_JR5VQIeQ7h5z75Moj-115" vertex="1">
                    <mxGeometry width="30" height="30" as="geometry">
                        <mxRectangle width="30" height="30" as="alternateBounds"/>
                    </mxGeometry>
                </mxCell>
                <mxCell id="TJ_JR5VQIeQ7h5z75Moj-117" value="AccountManager_account_name_column_width" style="shape=partialRectangle;connectable=0;fillColor=none;top=0;left=0;bottom=0;right=0;align=left;spacingLeft=6;overflow=hidden;whiteSpace=wrap;html=1;" parent="TJ_JR5VQIeQ7h5z75Moj-115" vertex="1">
                    <mxGeometry x="30" width="310" height="30" as="geometry">
                        <mxRectangle width="310" height="30" as="alternateBounds"/>
                    </mxGeometry>
                </mxCell>
                <mxCell id="TJ_JR5VQIeQ7h5z75Moj-118" value="" style="shape=tableRow;horizontal=0;startSize=0;swimlaneHead=0;swimlaneBody=0;fillColor=none;collapsible=0;dropTarget=0;points=[[0,0.5],[1,0.5]];portConstraint=eastwest;top=0;left=0;right=0;bottom=0;" parent="TJ_JR5VQIeQ7h5z75Moj-111" vertex="1">
                    <mxGeometry y="90" width="340" height="30" as="geometry"/>
                </mxCell>
                <mxCell id="TJ_JR5VQIeQ7h5z75Moj-119" value="" style="shape=partialRectangle;connectable=0;fillColor=none;top=0;left=0;bottom=0;right=0;editable=1;overflow=hidden;whiteSpace=wrap;html=1;" parent="TJ_JR5VQIeQ7h5z75Moj-118" vertex="1">
                    <mxGeometry width="30" height="30" as="geometry">
                        <mxRectangle width="30" height="30" as="alternateBounds"/>
                    </mxGeometry>
                </mxCell>
                <mxCell id="TJ_JR5VQIeQ7h5z75Moj-120" value="AccountManager_starting_amount_column_width" style="shape=partialRectangle;connectable=0;fillColor=none;top=0;left=0;bottom=0;right=0;align=left;spacingLeft=6;overflow=hidden;whiteSpace=wrap;html=1;" parent="TJ_JR5VQIeQ7h5z75Moj-118" vertex="1">
                    <mxGeometry x="30" width="310" height="30" as="geometry">
                        <mxRectangle width="310" height="30" as="alternateBounds"/>
                    </mxGeometry>
                </mxCell>
                <mxCell id="TJ_JR5VQIeQ7h5z75Moj-121" value="" style="shape=tableRow;horizontal=0;startSize=0;swimlaneHead=0;swimlaneBody=0;fillColor=none;collapsible=0;dropTarget=0;points=[[0,0.5],[1,0.5]];portConstraint=eastwest;top=0;left=0;right=0;bottom=0;" parent="TJ_JR5VQIeQ7h5z75Moj-111" vertex="1">
                    <mxGeometry y="120" width="340" height="30" as="geometry"/>
                </mxCell>
                <mxCell id="TJ_JR5VQIeQ7h5z75Moj-122" value="" style="shape=partialRectangle;connectable=0;fillColor=none;top=0;left=0;bottom=0;right=0;editable=1;overflow=hidden;whiteSpace=wrap;html=1;" parent="TJ_JR5VQIeQ7h5z75Moj-121" vertex="1">
                    <mxGeometry width="30" height="30" as="geometry">
                        <mxRectangle width="30" height="30" as="alternateBounds"/>
                    </mxGeometry>
                </mxCell>
                <mxCell id="TJ_JR5VQIeQ7h5z75Moj-123" value="CategoryManager_account_name_column_width" style="shape=partialRectangle;connectable=0;fillColor=none;top=0;left=0;bottom=0;right=0;align=left;spacingLeft=6;overflow=hidden;whiteSpace=wrap;html=1;" parent="TJ_JR5VQIeQ7h5z75Moj-121" vertex="1">
                    <mxGeometry x="30" width="310" height="30" as="geometry">
                        <mxRectangle width="310" height="30" as="alternateBounds"/>
                    </mxGeometry>
                </mxCell>
                <mxCell id="TJ_JR5VQIeQ7h5z75Moj-134" value="" style="shape=tableRow;horizontal=0;startSize=0;swimlaneHead=0;swimlaneBody=0;fillColor=none;collapsible=0;dropTarget=0;points=[[0,0.5],[1,0.5]];portConstraint=eastwest;top=0;left=0;right=0;bottom=0;" parent="TJ_JR5VQIeQ7h5z75Moj-111" vertex="1">
                    <mxGeometry y="150" width="340" height="30" as="geometry"/>
                </mxCell>
                <mxCell id="TJ_JR5VQIeQ7h5z75Moj-135" value="FK" style="shape=partialRectangle;connectable=0;fillColor=none;top=0;left=0;bottom=0;right=0;fontStyle=0;overflow=hidden;whiteSpace=wrap;html=1;" parent="TJ_JR5VQIeQ7h5z75Moj-134" vertex="1">
                    <mxGeometry width="30" height="30" as="geometry">
                        <mxRectangle width="30" height="30" as="alternateBounds"/>
                    </mxGeometry>
                </mxCell>
                <mxCell id="TJ_JR5VQIeQ7h5z75Moj-136" value="user_id&lt;div&gt;&lt;br&gt;&lt;/div&gt;" style="shape=partialRectangle;connectable=0;fillColor=none;top=0;left=0;bottom=0;right=0;align=left;spacingLeft=6;fontStyle=0;overflow=hidden;whiteSpace=wrap;html=1;" parent="TJ_JR5VQIeQ7h5z75Moj-134" vertex="1">
                    <mxGeometry x="30" width="310" height="30" as="geometry">
                        <mxRectangle width="310" height="30" as="alternateBounds"/>
                    </mxGeometry>
                </mxCell>
                <mxCell id="TJ_JR5VQIeQ7h5z75Moj-131" style="edgeStyle=orthogonalEdgeStyle;rounded=0;orthogonalLoop=1;jettySize=auto;html=1;entryX=0;entryY=0.5;entryDx=0;entryDy=0;shadow=0;strokeColor=#82b366;strokeWidth=3;align=center;verticalAlign=middle;fontFamily=Helvetica;fontSize=11;fontColor=default;labelBackgroundColor=default;elbow=vertical;jumpStyle=none;jumpSize=6;startArrow=ERone;startFill=0;endArrow=ERzeroToMany;endFill=0;endSize=13;flowAnimation=0;targetPerimeterSpacing=0;curved=1;fillColor=#d5e8d4;startSize=13;" parent="1" source="TJ_JR5VQIeQ7h5z75Moj-64" target="TJ_JR5VQIeQ7h5z75Moj-89" edge="1">
                    <mxGeometry relative="1" as="geometry"/>
                </mxCell>
            </root>
        </mxGraphModel>
    </diagram>
</mxfile>